# xmcd
#
# Track frame offsets:
#	150
#	19640
#	48817
#	70462
#	88207
#	117022
#	128397
#	151837
#	166872
#	183442
#	198782
#	217465
#	236055
#	250012
#	264770
#	280870
#	295407
#	309820
#
# Disc length: 4387
#
# Revision: 1
# Processed by: cddbd v1.5.1PL0 Copyright (c) Steve Scherf et al.
# Submitted via: CDex 1.50
# Normalized: r0:DSETVAR1,TDELIM( - )
#
DISCID=f1112112
DTITLE=Various Artist - Beyond Nashville
DYEAR=2003
DGENRE=Country
TTITLE0=Blackbirds - Erin Mckeown
TTITLE1=Last Night I Dreamnt of Mississippi - Nicolai Dunger
TTITLE2=Tengo Frio - Ely Guerra
TTITLE3=Ring The Bells - Jeb Loy Nichols
TTITLE4=Gin and Juice - The Gourds
TTITLE5=Jesus Gave me Water - Sam Cooke and the Soul Stirrers
TTITLE6=Superstar - Nina Nastasia
TTITLE7=Bermuda Highway - My Morning Jacket
TTITLE8=John Walkers Blues - Steve Earle
TTITLE9=When the Day is Short - Martha Wainright
TTITLE10=Miniskirt - The Sleepy Jackson
TTITLE11=Runaway Mama - Merle Haggard
TTITLE12=All The Same to You - Laura Cantrell
TTITLE13=Blood Orange - Howe Home
TTITLE14=I Dont Know (The Rules) - Menlo Park
TTITLE15=The Ledge - Mary Gauthier
TTITLE16=Texas Sun - The Bastard Sons of Johnny Cash
TTITLE17=Walk This Way - Hayseed Dixie
EXTD=YEAR: 2003
EXTT0=
EXTT1=
EXTT2=
EXTT3=
EXTT4=
EXTT5=
EXTT6=
EXTT7=
EXTT8=
EXTT9=
EXTT10=
EXTT11=
EXTT12=
EXTT13=
EXTT14=
EXTT15=
EXTT16=
EXTT17=
PLAYORDER=
